Jump_normalized_Motion_pl10
version=1
nRows=16
nColumns=43
inDegrees=yes
endheader
time		pelvis_tilt		pelvis_list		pelvis_rotation		pelvis_tx		pelvis_ty		pelvis_tz		hip_flexion_r		hip_adduction_r		hip_rotation_r		knee_angle_r		ankle_angle_r		subtalar_angle_r		mtp_angle_r		hip_flexion_l		hip_adduction_l		hip_rotation_l		knee_angle_l		ankle_angle_l		subtalar_angle_l		mtp_angle_l		lumbar_extension		lumbar_bending		lumbar_rotation		neck_flexion		neck_lateral_bending		neck_rotation		arm_flex_r		arm_add_r		arm_rot_r		elbow_flex_r		pro_sup_r		wrist_flex_r		wrist_dev_r		hand_finger_flex_r		arm_flex_l		arm_add_l		arm_rot_l		elbow_flex_l		pro_sup_l		wrist_flex_l		wrist_dev_l		hand_finger_flex_l		
0.160000		3.964916		-26.331673		91.418136		0.015990		1.676971		1.857533		96.079553		-11.491470		7.000484		-139.593245		45.599761		5.752157		-25.530907		99.175403		-12.832971		7.368913		-139.843981		46.060279		-2.884413		-34.131471		-37.442828		-0.397464		2.720157		42.139569		2.434745		3.714351		72.864546		-31.679886		20.463485		83.870955		65.667210		-18.402993		-19.835328		57.683906		89.541158		-30.198343		45.430132		79.523793		76.197297		-47.107471		6.949978		70.784926		
0.162197		3.971282		-26.549011		91.410913		0.015923		1.676570		1.856237		96.150952		-11.480631		7.049509		-139.616335		45.602778		5.738467		-25.518845		99.210352		-12.816484		7.380605		-139.875243		46.116816		-2.897308		-34.130672		-37.207001		-0.395968		2.728207		42.102779		2.513365		3.698419		74.134032		-31.514180		21.045044		83.787524		65.687607		-18.500759		-19.760072		57.695066		90.577135		-29.705732		45.684831		79.360500		76.077875		-47.117929		6.948554		70.820883		
0.164394		3.976169		-26.777967		91.405308		0.015983		1.676354		1.854831		96.185278		-11.466480		7.059601		-139.616469		45.612279		5.737352		-25.512646		99.228423		-12.793539		7.403678		-139.863675		46.151727		-2.906233		-34.129129		-36.967234		-0.412883		2.725750		42.193241		2.559849		3.684435		75.224487		-31.128193		21.297292		83.672017		65.676972		-18.591577		-19.694577		57.648663		91.504461		-29.148969		45.735292		79.172192		76.008074		-47.120958		6.954441		70.808140		
0.166591		3.980825		-26.638613		91.402424		0.016041		1.676758		1.853270		95.821895		-11.472325		7.021417		-139.645877		45.601763		5.710813		-25.483629		98.838839		-12.799620		7.427654		-139.892919		46.174030		-2.948364		-34.140806		-37.158646		-0.396000		2.600953		42.150754		2.590963		3.784061		76.715322		-30.758060		22.130637		83.425739		65.193289		-19.235161		-19.711237		57.514953		92.828097		-28.948724		46.328007		79.056197		75.375658		-47.306599		6.906709		70.948114		
0.168788		3.994839		-26.568952		91.408121		0.016059		1.677028		1.851713		95.531191		-11.480201		7.003014		-139.665501		45.580454		5.694449		-25.446441		98.528911		-12.797333		7.464464		-139.916854		46.197536		-2.990032		-34.158238		-37.259115		-0.358868		2.503187		42.071788		2.569757		3.871019		78.183115		-30.439356		22.994089		83.186367		64.694181		-19.905519		-19.802202		57.482259		94.108011		-28.726263		46.927718		78.919839		74.668211		-47.583704		6.752140		71.111301		
0.170985		4.002760		-26.712265		91.405257		0.016071		1.676940		1.850178		95.465756		-11.480535		7.000390		-139.675835		45.589881		5.680138		-25.419926		98.445694		-12.785254		7.490099		-139.930816		46.235295		-3.012248		-34.167871		-37.104446		-0.352676		2.472205		42.063599		2.610423		3.881364		79.434207		-30.161618		23.574960		83.013549		64.495726		-20.234912		-19.828466		57.507640		95.146487		-28.313071		47.208344		78.749515		74.291502		-47.746708		6.618630		71.187150		
0.173182		3.997940		-26.938388		91.386796		0.016119		1.676830		1.848608		95.472825		-11.473338		6.991799		-139.668553		45.627301		5.657038		-25.408397		98.420775		-12.772083		7.501063		-139.920794		46.276206		-3.021685		-34.167782		-36.859792		-0.383624		2.464506		42.120860		2.731251		3.853429		80.543879		-29.865008		23.921814		82.873040		64.510817		-20.312292		-19.744212		57.477371		96.051584		-27.802686		47.266646		78.575268		74.206476		-47.746871		6.593270		71.181823		
0.175379		4.000623		-27.074590		91.373637		0.016194		1.677107		1.846954		95.345451		-11.462820		6.981074		-139.613699		45.632356		5.637670		-25.397126		98.253179		-12.754466		7.534134		-139.851323		46.291612		-3.041413		-34.173353		-36.736384		-0.392072		2.444772		42.158447		2.754236		3.864521		81.665842		-29.486668		24.243775		82.703308		64.388575		-20.531325		-19.693999		57.391338		97.027625		-27.358456		47.412921		78.400373		74.012863		-47.765417		6.553836		71.187675		
0.177576		4.008259		-26.758746		91.368628		0.016231		1.678066		1.845045		94.722092		-11.470840		6.901989		-139.602587		45.614424		5.567240		-25.359947		97.608775		-12.780561		7.559992		-139.838513		46.295823		-3.112863		-34.200410		-37.148385		-0.361875		2.323503		42.128666		2.717986		3.978039		83.224174		-29.163032		25.176195		82.418638		63.786862		-21.326146		-19.730104		57.188803		98.445377		-27.252908		48.108954		78.274413		73.230831		-47.909441		6.370065		71.313413		
0.179773		4.007704		-26.990206		91.350469		0.016196		1.678042		1.843389		94.713140		-11.466563		6.902011		-139.567354		45.646183		5.537593		-25.342367		97.562129		-12.758426		7.559283		-139.815472		46.332674		-3.117463		-34.206975		-36.885823		-0.371630		2.322050		42.075932		2.806564		3.957335		84.381524		-28.954733		25.691208		82.239429		63.746323		-21.469062		-19.698768		57.182320		99.372272		-26.802050		48.250595		78.091859		73.035615		-47.967486		6.290550		71.310628		
0.181970		4.002397		-27.242184		91.344957		0.016298		1.678204		1.841631		94.681726		-11.452472		6.872974		-139.502738		45.659431		5.531763		-25.335515		97.506764		-12.743473		7.568214		-139.745444		46.347318		-3.121686		-34.209202		-36.612990		-0.394549		2.308479		42.161026		2.836813		3.943943		85.339157		-28.553061		25.824265		82.065548		63.709986		-21.574777		-19.662420		57.131982		100.187253		-26.288379		48.201744		77.894664		72.953277		-47.993881		6.261210		71.276793		
0.184167		4.008606		-27.073864		91.333237		0.016303		1.679096		1.839626		94.177232		-11.461591		6.801267		-139.459004		45.641154		5.447985		-25.299901		96.986148		-12.766779		7.580517		-139.693020		46.344837		-3.191547		-34.232492		-36.852857		-0.366887		2.231861		42.204762		2.786733		4.018690		86.726018		-28.218921		26.565605		81.778409		63.207825		-22.260517		-19.820493		57.028283		101.411655		-26.083057		48.667672		77.733985		72.306620		-48.142863		6.074504		71.341010		
0.186364		4.009336		-27.151372		91.324580		0.016328		1.679626		1.837687		93.931729		-11.455923		6.753194		-139.387998		45.649683		5.399878		-25.277759		96.717300		-12.772622		7.575903		-139.620864		46.355127		-3.220464		-34.243991		-36.792393		-0.364469		2.187549		42.252714		2.804335		4.043268		87.870328		-27.881634		27.009481		81.540862		62.965320		-22.625637		-19.878422		56.969181		102.389912		-25.727898		48.840690		77.558467		71.960605		-48.234336		5.969341		71.352595		
0.188561		3.998851		-27.387182		91.311096		0.016357		1.679727		1.835839		93.889210		-11.442300		6.735832		-139.349467		45.664896		5.363162		-25.266447		96.646140		-12.774849		7.558103		-139.583304		46.371713		-3.229340		-34.245520		-36.511889		-0.384410		2.172933		42.218697		2.861574		4.027495		88.922542		-27.614686		27.374023		81.311721		62.968904		-22.724488		-19.836168		56.955905		103.260808		-25.281486		48.914683		77.329838		71.868254		-48.239252		5.960620		71.336367		
0.190758		3.986497		-27.432939		91.291101		0.016340		1.680200		1.833873		93.632360		-11.435969		6.703862		-139.313842		45.644603		5.274923		-25.236000		96.357010		-12.802224		7.529248		-139.543881		46.371580		-3.281180		-34.250900		-36.463633		-0.380898		2.130944		42.176239		2.843864		4.060194		90.171349		-27.361754		28.013992		81.012387		62.755379		-23.117870		-19.951543		56.982178		104.321336		-24.978235		49.223466		77.109796		71.521884		-48.299818		5.912172		71.385097		
0.192955		3.980822		-27.369848		91.276831		0.016312		1.681299		1.831716		93.178599		-11.426523		6.639452		-139.182449		45.606505		5.166454		-25.186033		95.867544		-12.834210		7.491378		-139.404586		46.357751		-3.357111		-34.258086		-36.594752		-0.352642		2.057844		42.295188		2.758895		4.142824		91.406305		-26.964501		28.592559		80.690829		62.266320		-23.815239		-20.272918		57.046919		105.393935		-24.753602		49.501373		76.961883		70.924806		-48.481804		5.787791		71.475180		
